<?xml version="1.0" standalone="no"?>
<!DOCTYPE svg PUBLIC "-//W3C//DTD SVG 20010904//EN"
 "http://www.w3.org/TR/2001/REC-SVG-20010904/DTD/svg10.dtd">
<svg version="1.0" xmlns="http://www.w3.org/2000/svg"
 width="555.000000pt" height="664.000000pt" viewBox="0 0 555.000000 664.000000"
 preserveAspectRatio="xMidYMid meet">

<g transform="translate(0.000000,664.000000) scale(0.100000,-0.100000)"
fill="#000000" stroke="none">
<path d="M1236 6614 c-259 -47 -530 -196 -724 -398 -393 -410 -466 -1055 -167
-1483 74 -105 133 -169 248 -268 177 -153 209 -173 932 -580 327 -184 435
-254 565 -363 110 -92 190 -182 267 -300 87 -132 127 -250 141 -409 l7 -88
129 -3 128 -3 -7 83 c-28 334 -176 614 -457 866 -163 147 -280 225 -608 407
-377 209 -656 369 -730 418 -277 185 -427 356 -503 574 -28 80 -31 102 -35
239 -5 174 9 263 62 406 66 174 194 345 346 460 89 68 246 143 365 174 87 23
120 27 255 27 172 0 261 -14 391 -64 168 -65 343 -196 451 -338 67 -89 153
-267 178 -371 11 -47 23 -124 27 -172 l6 -88 130 0 129 0 -7 78 c-17 186 -60
336 -146 502 -185 360 -523 613 -922 691 -118 23 -332 24 -451 3z"/>
<path d="M2800 5039 c-353 -29 -725 -180 -1000 -404 -104 -85 -300 -290 -300
-314 0 -7 191 -114 194 -109 14 26 156 173 214 221 240 199 509 321 812 367
124 18 377 14 514 -10 471 -81 885 -376 1125 -802 l32 -58 125 0 124 0 -49 98
c-288 574 -854 956 -1501 1012 -127 11 -151 11 -290 -1z"/>
<path d="M1230 3843 c-205 -548 -131 -1164 199 -1654 463 -689 1318 -985 2096
-725 424 142 782 434 1012 824 45 77 133 260 133 278 0 2 -54 4 -120 4 l-120
0 -44 -88 c-79 -157 -160 -268 -300 -407 -144 -144 -251 -223 -411 -302 -171
-86 -325 -133 -515 -159 -508 -67 -1013 111 -1371 484 -220 229 -367 521 -421
837 -17 103 -19 148 -15 320 6 211 18 291 73 459 14 43 24 79 22 80 -8 6 -191
106 -194 106 -1 0 -12 -26 -24 -57z"/>
<path d="M160 2668 c0 -24 7 -86 15 -138 66 -429 324 -784 713 -979 140 -71
375 -131 510 -131 l52 0 0 125 c0 93 -3 125 -12 125 -52 0 -206 24 -268 41
-308 86 -574 328 -686 627 -40 108 -64 221 -64 307 l0 65 -130 0 -130 0 0 -42z"/>
<path d="M2845 1038 c-30 -16 -55 -50 -55 -77 0 -13 10 -43 22 -67 l21 -43
-41 -45 c-67 -73 -74 -141 -20 -193 25 -24 37 -28 88 -28 50 0 63 4 98 33 23
17 47 32 55 32 7 0 26 -13 42 -30 16 -16 36 -30 44 -30 9 0 -2 17 -29 45 l-44
45 23 40 c18 33 20 40 7 40 -9 0 -21 -9 -28 -20 -7 -11 -18 -20 -24 -20 -16 0
-114 108 -114 125 0 7 7 15 15 19 23 9 55 68 55 103 0 23 -8 38 -31 57 -33 28
-53 32 -84 14z m79 -44 c11 -30 6 -61 -15 -88 -27 -34 -55 -33 -74 4 -18 34
-18 40 -5 74 8 22 16 26 49 26 26 0 41 -5 45 -16z m0 -240 c47 -53 57 -70 49
-83 -17 -27 -74 -61 -104 -61 -71 0 -107 40 -95 104 7 37 59 106 80 106 6 0
38 -30 70 -66z"/>
<path d="M88 1019 c-63 -32 -87 -110 -50 -155 25 -31 71 -52 154 -69 95 -20
118 -36 118 -79 0 -19 -3 -42 -6 -51 -23 -60 -203 -61 -253 -1 -17 20 -31 21
-31 2 0 -8 15 -26 32 -39 98 -73 239 -53 283 39 39 82 -13 136 -155 164 -78
15 -116 33 -125 60 -10 32 4 79 29 95 56 37 179 24 201 -22 8 -15 15 -19 25
-13 12 7 10 14 -10 36 -52 55 -143 70 -212 33z"/>
<path d="M501 823 c-45 -120 -81 -221 -81 -225 0 -5 6 -8 14 -8 8 0 24 27 38
65 l23 65 102 0 101 0 24 -65 c16 -46 28 -65 40 -65 16 0 14 8 -11 78 -114
304 -140 367 -154 370 -10 2 -36 -57 -96 -215z m137 46 c18 -47 32 -90 32 -97
0 -8 -23 -12 -75 -12 -41 0 -75 3 -75 7 0 21 74 203 80 196 4 -4 21 -46 38
-94z"/>
<path d="M860 815 c0 -193 2 -225 15 -225 13 0 15 27 15 180 0 146 3 180 14
180 7 0 69 -81 137 -180 80 -116 130 -180 142 -180 16 0 17 17 17 226 0 209
-1 225 -17 222 -16 -3 -19 -22 -23 -187 -4 -164 -7 -183 -20 -170 -8 9 -69 93
-134 187 -66 95 -125 172 -133 172 -10 0 -13 -45 -13 -225z"/>
<path d="M1270 1020 c0 -18 7 -20 70 -20 l70 0 0 -205 c0 -198 1 -205 20 -205
19 0 20 7 20 205 l0 205 70 0 c63 0 70 2 70 20 0 19 -7 20 -160 20 -153 0
-160 -1 -160 -20z"/>
<path d="M1785 1021 c-84 -39 -135 -120 -135 -213 1 -176 193 -286 328 -188
45 32 74 70 90 119 61 178 -120 358 -283 282z m179 -40 c51 -32 80 -94 80
-171 0 -73 -15 -109 -63 -155 -28 -25 -41 -30 -100 -33 -87 -5 -132 14 -166
72 -67 115 -22 272 88 305 45 14 122 5 161 -18z"/>
<path d="M2228 1019 c-63 -32 -87 -110 -50 -155 25 -31 71 -52 154 -69 95 -20
118 -36 118 -79 0 -19 -3 -42 -6 -51 -23 -60 -203 -61 -253 -1 -17 20 -31 21
-31 2 0 -8 15 -26 33 -39 97 -73 238 -53 282 39 39 82 -13 136 -155 164 -78
15 -116 33 -125 60 -10 32 4 79 29 95 56 37 179 24 201 -22 8 -15 15 -19 25
-13 12 7 10 14 -10 36 -52 55 -143 70 -212 33z"/>
<path d="M3505 1021 c-154 -71 -182 -275 -54 -385 73 -62 160 -70 245 -21 49
29 68 50 59 65 -5 8 -16 3 -34 -13 -41 -38 -65 -47 -131 -47 -69 0 -106 15
-144 60 -71 85 -52 237 37 297 65 43 166 38 225 -12 31 -26 52 -32 52 -16 0
17 -70 68 -109 80 -54 16 -100 13 -146 -8z"/>
<path d="M3852 863 c3 -169 4 -180 27 -212 57 -80 173 -91 242 -22 51 50 60
94 57 263 -3 125 -5 143 -20 146 -15 3 -17 -14 -20 -178 l-3 -182 -33 -29
c-60 -54 -179 -34 -208 36 -10 25 -14 79 -14 195 0 138 -2 160 -16 160 -13 0
-15 -22 -12 -177z"/>
<path d="M4270 815 c0 -193 2 -225 15 -225 13 0 15 27 15 180 0 146 3 180 14
180 7 0 69 -81 137 -180 80 -116 130 -180 142 -180 16 0 17 17 17 226 0 209
-1 225 -17 222 -16 -3 -19 -22 -23 -187 -4 -164 -7 -183 -20 -170 -8 9 -69 93
-134 187 -66 95 -125 172 -133 172 -10 0 -13 -45 -13 -225z"/>
<path d="M4710 815 c0 -193 2 -225 15 -225 12 0 15 18 15 100 l0 100 135 0
135 0 0 -100 c0 -94 1 -100 20 -100 20 0 20 5 18 222 -3 203 -5 223 -20 226
-16 3 -18 -7 -18 -102 l0 -106 -135 0 -135 0 0 105 c0 87 -3 105 -15 105 -13
0 -15 -32 -15 -225z"/>
<path d="M5221 823 c-45 -120 -81 -221 -81 -225 0 -5 6 -8 14 -8 8 0 24 27 38
65 l23 65 102 0 101 0 24 -65 c16 -46 28 -65 40 -65 16 0 14 8 -11 78 -114
304 -140 367 -154 370 -10 2 -36 -57 -96 -215z m137 46 c18 -47 32 -90 32 -97
0 -8 -23 -12 -75 -12 -41 0 -75 3 -75 7 0 21 74 203 80 196 4 -4 21 -46 38
-94z"/>
<path d="M1490 370 c0 -7 682 -10 2025 -10 1343 0 2025 3 2025 10 0 7 -682 10
-2025 10 -1343 0 -2025 -3 -2025 -10z"/>
</g>
</svg>
